<?xml version="1.0" encoding="iso-8859-1"?>
<!-- Generator: Adobe Illustrator 19.0.0, SVG Export Plug-In . SVG Version: 6.00 Build 0)  -->
<svg version="1.1" id="Layer_1" xmlns="http://www.w3.org/2000/svg" xmlns:xlink="http://www.w3.org/1999/xlink" x="0px" y="0px"
	 viewBox="0 0 512 512" style="enable-background:new 0 0 512 512;" xml:space="preserve">
<g>
	<g>
		<g>
			<path d="M469.333,21.333H42.667C19.135,21.333,0,40.469,0,64v298.667c0,23.531,19.135,42.667,42.667,42.667h149.362
				c-0.46,17.052-3.728,44.306-15.893,57.104c-4.469,4.708-9.604,6.896-16.135,6.896c-5.896,0-10.667,4.771-10.667,10.667
				c0,5.896,4.771,10.667,10.667,10.667h192c5.896,0,10.667-4.771,10.667-10.667c0-5.896-4.771-10.667-10.667-10.667
				c-6.531,0-11.667-2.188-16.135-6.896c-12.165-12.798-15.434-40.052-15.893-57.104h149.362c23.531,0,42.667-19.135,42.667-42.667
				V64C512,40.469,492.865,21.333,469.333,21.333z M197.729,469.333c12.881-19.749,15.374-48.188,15.695-64h85.151
				c0.322,15.813,2.814,44.251,15.695,64H197.729z M490.667,362.667c0,11.76-9.573,21.333-21.333,21.333H42.667
				c-11.76,0-21.333-9.573-21.333-21.333V320h469.333V362.667z M490.667,298.667h-89.833
				c-10.703-11.794-16.771-26.703-16.771-42.667c0-35.26,28.677-63.938,63.938-63.938c15.964,0,30.872,6.068,42.667,16.771V298.667z
				 M490.667,182.486c-12.876-7.527-27.371-11.881-42.667-11.881c-47.083,0-85.396,38.313-85.396,85.396
				c0,15.296,4.354,29.79,11.882,42.667h-34.992c-0.577-1.434-1.243-2.819-1.754-4.292c-1.188-3.417-4.021-6.01-7.531-6.885
				l-31.479-7.865v-47.25l31.479-7.865c3.51-0.875,6.344-3.469,7.531-6.885c1.49-4.313,3.135-8.479,5.104-12.531
				c1.573-3.26,1.406-7.094-0.458-10.198l-16.646-27.74l33.417-33.417l27.74,16.646c3.135,1.865,6.958,2.042,10.198,0.458
				c4.052-1.969,8.219-3.615,12.531-5.104c3.417-1.188,6.01-4.021,6.885-7.531l7.865-31.479h47.25l7.865,31.479
				c0.875,3.51,3.469,6.344,6.885,7.531c1.473,0.51,2.858,1.177,4.292,1.754V182.486z M490.667,94.439l-0.26-1.043
				c-1.198-4.771-5.49-8.125-10.406-8.125h-64c-4.917,0-9.208,3.354-10.406,8.125l-8.521,34.094
				c-1.333,0.521-2.646,1.052-3.958,1.604l-30.104-18.063c-4.24-2.542-9.646-1.854-13.104,1.615l-45.25,45.26
				c-3.479,3.479-4.146,8.885-1.615,13.104l18.063,30.104c-0.563,1.313-1.094,2.625-1.615,3.958l-34.094,8.521
				c-4.771,1.198-8.125,5.49-8.125,10.406v64c0,4.917,3.354,9.208,8.125,10.406l1.043,0.26H21.333V64
				c0-11.76,9.573-21.333,21.333-21.333h426.667c11.76,0,21.333,9.573,21.333,21.333V94.439z"/>
			<circle cx="256" cy="352" r="21.333"/>
		</g>
	</g>
</g>
<g>
</g>
<g>
</g>
<g>
</g>
<g>
</g>
<g>
</g>
<g>
</g>
<g>
</g>
<g>
</g>
<g>
</g>
<g>
</g>
<g>
</g>
<g>
</g>
<g>
</g>
<g>
</g>
<g>
</g>
</svg>
